<?xml version="1.0" encoding="UTF-8" standalone="no"?>
<svg
   version="1.1"
   x="0px"
   y="0px"
   width="25"
   height="25"
   viewBox="0 0 25 24.999999"
   xml:space="preserve"
   id="svg5"
   sodipodi:docname="Nintendo_3DS_logo.svg"
   inkscape:version="1.4 (e7c3feb100, 2024-10-09)"
   xmlns:inkscape="http://www.inkscape.org/namespaces/inkscape"
   xmlns:sodipodi="http://sodipodi.sourceforge.net/DTD/sodipodi-0.dtd"
   xmlns="http://www.w3.org/2000/svg"
   xmlns:svg="http://www.w3.org/2000/svg"><defs
   id="defs5">
		
		
		
		
	</defs><sodipodi:namedview
   id="namedview5"
   pagecolor="#505050"
   bordercolor="#ffffff"
   borderopacity="1"
   inkscape:showpageshadow="0"
   inkscape:pageopacity="0"
   inkscape:pagecheckerboard="1"
   inkscape:deskcolor="#505050"
   inkscape:zoom="9.2651515"
   inkscape:cx="4.6950123"
   inkscape:cy="3.4538021"
   inkscape:window-width="1280"
   inkscape:window-height="952"
   inkscape:window-x="0"
   inkscape:window-y="0"
   inkscape:window-maximized="1"
   inkscape:current-layer="svg5" />
<style
   type="text/css"
   id="style1">
	.st0{fill:#8C8C8C;}
	.st1{fill:#CE181E;}
	.st2{fill:none;}
</style>
<g
   id="g5"
   inkscape:label="3ds-logo-by-nintendo-and-turtledevv"
   transform="matrix(0.81308965,0,0,0.85470784,-47.467908,5.7203597)"
   style="fill:#000000">
	<g
   id="g6"
   inkscape:label="squares"
   style="fill:#000000"><path
     class="st0"
     d="M 68.7,8.3 H 62.8 C 62,8.3 61.3,9 61.3,9.8 V 14 c 0,0.8 0.7,1.5 1.5,1.5 h 5.9 c 0.8,0 1.5,-0.7 1.5,-1.5 V 9.8 C 70.3,9 69.6,8.3 68.7,8.3 M 69,14 c 0,0.2 -0.1,0.3 -0.3,0.3 h -5.8 c -0.2,0 -0.3,-0.1 -0.3,-0.3 V 9.8 c 0,-0.2 0.1,-0.3 0.3,-0.3 h 5.8 c 0.2,0 0.3,0.1 0.3,0.3 z"
     id="path2"
     inkscape:label="btm"
     style="fill:#000000" /><path
     class="st0"
     d="m 68.78103,0.49550286 h -5.9 c -0.8,0 -1.5,0.70000004 -1.5,1.50000004 v 4.2 c 0,0.8 0.7,1.5 1.5,1.5 h 5.9 c 0.8,0 1.5,-0.7 1.5,-1.5 v -4.2 c 0.1,-0.8 -0.6,-1.50000004 -1.5,-1.50000004 m 0.3,5.70000004 c 0,0.2 -0.1,0.3 -0.3,0.3 h -5.8 c -0.2,0 -0.3,-0.1 -0.3,-0.3 v -4.2 c 0,-0.2 0.1,-0.3 0.3,-0.3 h 5.8 c 0.2,0 0.3,0.1 0.3,0.3 z"
     id="path2-3"
     style="fill:#000000"
     inkscape:label="top" /></g><path
   class="st1"
   d="m 81.979233,7.1 c 0,0 3.569948,-0.7 3.569948,-3.4 0,-2.6 -3.819014,-3.7 -7.887094,-3.7 -3.65297,0 -6.060609,0.5 -6.060609,0.5 V 2.9 C 73.261919,2.4 74.839338,2 76.997911,2 c 2.324617,0 4.06808,0.8 4.06808,2 0,1.4 -1.743463,2.2 -5.562477,2.2 h -1.660441 v 2.2 h 1.660441 c 3.985058,0 6.226653,0.7 6.226653,2.5 0,1.6 -1.992529,2.5 -4.566212,2.5 -2.241595,0 -4.234124,-0.6 -5.811543,-1.1 v 2.6 c 0.83022,0.2 2.905771,0.7 6.724785,0.7 4.317146,0 8.053138,-1.7 8.053138,-4.6 0,-2.5 -2.656705,-3.9 -4.151102,-3.9"
   id="path4"
   style="fill:#000000;fill-opacity:1;stroke-width:0.911164"
   inkscape:label="3" />
	
</g>
</svg>
